<svg xmlns="http://www.w3.org/2000/svg" viewBox="0 0 1170 660" width="1170" height="660" font-family="Helvetica, Arial, sans-serif">
  <defs>
    <marker id="arrow" viewBox="0 0 10 10" refX="9" refY="5" markerWidth="8" markerHeight="8" orient="auto-start-reverse"><path d="M0,0 L10,5 L0,10 z" fill="#555555"/></marker>
  </defs>
  <rect x="0" y="0" width="1170" height="660" fill="#ffffff"/>
  <text x="20" y="32" font-size="22" font-weight="700" fill="#333333">dockerhub-mimic &#8212; Container Architecture</text>
  <text x="22" y="52" font-size="13" font-style="italic" fill="#777777">8 containers, orchestrated by docker-compose.yml</text>
  <polyline points="350,100.0 376,100.0 334,100.0 334,226.66666666666666 360,226.66666666666666" fill="none" stroke="#555555" stroke-width="1.6" stroke-linejoin="round" marker-end="url(#arrow)"/>
  <text x="344.0" y="163.33333333333331" font-size="11.5" fill="#444444" text-anchor="start" font-style="italic">HTTP :3000</text>
  <polyline points="650,100.0 624,100.0 666,100.0 666,226.66666666666666 640,226.66666666666666" fill="none" stroke="#555555" stroke-width="1.6" stroke-linejoin="round" marker-end="url(#arrow)"/>
  <text x="676.0" y="163.33333333333331" font-size="11.5" fill="#444444" text-anchor="start" font-style="italic">login / push / pull</text>
  <polyline points="360,253.33333333333331 334,253.33333333333331 316,253.33333333333331 316,365.0 290,365.0" fill="none" stroke="#555555" stroke-width="1.6" stroke-linejoin="round" marker-end="url(#arrow)"/>
  <text x="326.0" y="309.16666666666663" font-size="11.5" fill="#444444" text-anchor="start" font-style="italic">/  (static SPA)</text>
  <polyline points="500.0,280 500.0,306 495.0,306 495.0,334 495.0,360" fill="none" stroke="#555555" stroke-width="1.6" stroke-linejoin="round" marker-end="url(#arrow)"/>
  <text x="505.0" y="320.0" font-size="11.5" fill="#444444" text-anchor="start" font-style="italic">/api, /auth, /swagger</text>
  <polyline points="640,253.33333333333331 666,253.33333333333331 734,253.33333333333331 734,350.0 760,350.0" fill="none" stroke="#555555" stroke-width="1.6" stroke-linejoin="round" marker-end="url(#arrow)"/>
  <text x="744.0" y="301.66666666666663" font-size="11.5" fill="#444444" text-anchor="start" font-style="italic">/v2  (Registry API)</text>
  <polyline points="418.3333333333333,450 418.3333333333333,458 130.0,458 130.0,540" fill="none" stroke="#555555" stroke-width="1.6" stroke-linejoin="round" marker-end="url(#arrow)"/>
  <text x="274.16666666666663" y="450.0" font-size="11.5" fill="#444444" text-anchor="middle" font-style="italic">EF Core</text>
  <polyline points="456.66666666666663,450 456.66666666666663,478 340.0,478 340.0,540" fill="none" stroke="#555555" stroke-width="1.6" stroke-linejoin="round" marker-end="url(#arrow)"/>
  <text x="398.3333333333333" y="470.0" font-size="11.5" fill="#444444" text-anchor="middle" font-style="italic">cache</text>
  <polyline points="495.0,450 495.0,488 514.0,488 514.0,540" fill="none" stroke="#555555" stroke-width="1.6" stroke-linejoin="round" marker-end="url(#arrow)"/>
  <text x="504.0" y="514.0" font-size="11.5" fill="#444444" text-anchor="end" font-style="italic">log search</text>
  <polyline points="533.3333333333333,450 533.3333333333333,518 820.0,518 820.0,540" fill="none" stroke="#555555" stroke-width="1.6" stroke-linejoin="round" marker-end="url(#arrow)"/>
  <text x="676.6666666666666" y="510.0" font-size="11.5" fill="#444444" text-anchor="middle" font-style="italic">log files (shared volume)</text>
  <polyline points="730,580.0 640,580.0" fill="none" stroke="#555555" stroke-width="1.6" stroke-linejoin="round" marker-end="url(#arrow)"/>
  <text x="685.0" y="596.0" font-size="11.5" fill="#444444" text-anchor="middle" font-style="italic">ships logs</text>
  <polyline points="817.5,410 817.5,498 571.6666666666667,498 571.6666666666667,450" fill="none" stroke="#555555" stroke-width="1.6" stroke-dasharray="6 4" stroke-linejoin="round" marker-end="url(#arrow)"/>
  <text x="694.5833333333334" y="490.0" font-size="11.5" fill="#444444" text-anchor="middle" font-style="italic">push/pull events (webhook)</text>
  <rect x="130" y="70" width="220" height="60" rx="10" ry="10" fill="#f3f3f3" stroke="#999999" stroke-width="1.6"/>
  <text x="240.0" y="105.0" font-size="15" font-weight="700" fill="#222222" text-anchor="middle">Browser</text>
  <rect x="650" y="70" width="220" height="60" rx="10" ry="10" fill="#f3f3f3" stroke="#999999" stroke-width="1.6"/>
  <text x="760.0" y="105.0" font-size="15" font-weight="700" fill="#222222" text-anchor="middle">docker CLI</text>
  <rect x="360" y="200" width="280" height="80" rx="8" ry="8" fill="#ffe6cc" stroke="#d79b00" stroke-width="1.6"/>
  <text x="500.0" y="234.0" font-size="15" font-weight="700" fill="#222222" text-anchor="middle">nginx</text>
  <text x="500.0" y="254.0" font-size="11.5" fill="#555555" text-anchor="middle">reverse proxy &amp;#8212; :3000 published</text>
  <rect x="60" y="320" width="230" height="90" rx="8" ry="8" fill="#dae8fc" stroke="#6c8ebf" stroke-width="1.6"/>
  <text x="175.0" y="359.0" font-size="15" font-weight="700" fill="#222222" text-anchor="middle">frontend</text>
  <text x="175.0" y="379.0" font-size="11.5" fill="#555555" text-anchor="middle">React SPA (serve)</text>
  <rect x="380" y="360" width="230" height="90" rx="8" ry="8" fill="#dae8fc" stroke="#6c8ebf" stroke-width="1.6"/>
  <text x="495.0" y="399.0" font-size="15" font-weight="700" fill="#222222" text-anchor="middle">backend</text>
  <text x="495.0" y="419.0" font-size="11.5" fill="#555555" text-anchor="middle">ASP.NET Core API</text>
  <rect x="760" y="320" width="230" height="90" rx="8" ry="8" fill="#dae8fc" stroke="#6c8ebf" stroke-width="1.6"/>
  <text x="875.0" y="359.0" font-size="15" font-weight="700" fill="#222222" text-anchor="middle">registry</text>
  <text x="875.0" y="379.0" font-size="11.5" fill="#555555" text-anchor="middle">Docker Registry v2</text>
  <rect x="40" y="540" width="180" height="80" rx="8" ry="8" fill="#d5e8d4" stroke="#82b366" stroke-width="1.6"/>
  <text x="130.0" y="574.0" font-size="15" font-weight="700" fill="#222222" text-anchor="middle">db</text>
  <text x="130.0" y="594.0" font-size="11.5" fill="#555555" text-anchor="middle">PostgreSQL</text>
  <rect x="250" y="540" width="180" height="80" rx="8" ry="8" fill="#d5e8d4" stroke="#82b366" stroke-width="1.6"/>
  <text x="340.0" y="574.0" font-size="15" font-weight="700" fill="#222222" text-anchor="middle">mem-cache</text>
  <text x="340.0" y="594.0" font-size="11.5" fill="#555555" text-anchor="middle">Redis</text>
  <rect x="460" y="540" width="180" height="80" rx="8" ry="8" fill="#d5e8d4" stroke="#82b366" stroke-width="1.6"/>
  <text x="550.0" y="574.0" font-size="15" font-weight="700" fill="#222222" text-anchor="middle">elasticsearch</text>
  <text x="550.0" y="594.0" font-size="11.5" fill="#555555" text-anchor="middle">log storage/search</text>
  <rect x="730" y="540" width="180" height="80" rx="8" ry="8" fill="#e6d9ef" stroke="#8e5ba6" stroke-width="1.6"/>
  <text x="820.0" y="574.0" font-size="15" font-weight="700" fill="#222222" text-anchor="middle">filebeat</text>
  <text x="820.0" y="594.0" font-size="11.5" fill="#555555" text-anchor="middle">log shipper</text>
  <rect x="900" y="70" width="230" height="138" rx="6" ry="6" fill="#ffffff" stroke="#bbbbbb" stroke-width="1"/>
  <text x="912" y="90" font-size="12.5" font-weight="700" fill="#333333">Legend</text>
  <rect x="912" y="102" width="16" height="14" rx="3" ry="3" fill="#f3f3f3" stroke="#999999"/>
  <text x="936" y="113.5" font-size="11.5" fill="#333333">Actor (outside the stack)</text>
  <rect x="912" y="124" width="16" height="14" rx="3" ry="3" fill="#ffe6cc" stroke="#d79b00"/>
  <text x="936" y="135.5" font-size="11.5" fill="#333333">Reverse proxy</text>
  <rect x="912" y="146" width="16" height="14" rx="3" ry="3" fill="#dae8fc" stroke="#6c8ebf"/>
  <text x="936" y="157.5" font-size="11.5" fill="#333333">Application service</text>
  <rect x="912" y="168" width="16" height="14" rx="3" ry="3" fill="#d5e8d4" stroke="#82b366"/>
  <text x="936" y="179.5" font-size="11.5" fill="#333333">Data store</text>
  <rect x="912" y="190" width="16" height="14" rx="3" ry="3" fill="#e6d9ef" stroke="#8e5ba6"/>
  <text x="936" y="201.5" font-size="11.5" fill="#333333">Log shipping</text>
</svg>
